# xmcd
#
# Track frame offsets: 
#        150
#        14224
#        30673
#        63858
#        81418
#        98617
#        124511
#
# Disc length: 2737 seconds
#
# Revision: 0
# Processed by: cddbd v1.5.2PL0 Copyright (c) Steve Scherf et al.
# Submitted via: ExactAudioCopy v0.99pb4
#
DISCID=520aaf07
DTITLE=Charles Wright and The Watts 103rd Street Rhythm Band - Express Y
DTITLE=ourself
DYEAR=1970
DGENRE=Soul
TTITLE0=Road Without An End
TTITLE1=I Got Love
TTITLE2=High As Apple Pie - Slice 1
TTITLE3=Express Yourself
TTITLE4=I'm Aware
TTITLE5=Tell Me What You Want Me To Do
TTITLE6=High As Apple Pie - Slice 2
EXTD=
EXTT0=
EXTT1=
EXTT2=
EXTT3=
EXTT4=
EXTT5=
EXTT6=
PLAYORDER=
